<svg xmlns="http://www.w3.org/2000/svg" xmlns:xlink="http://www.w3.org/1999/xlink" x="0" y="0" version="1.1" viewBox="0 0 22 22" xml:space="preserve" style="enable-background:new 0 0 22 22"><style type="text/css">.st0{display:none}.st1{opacity:.25;fill:#fff}.st1,.st2{display:inline}.st3{fill:#fff}.st4{fill:#006837}.st5{display:inline;opacity:.5}.st6{fill:#fbb03b}.st7{fill:#8cc63f}.st8{display:inline;opacity:.4}.st9{fill:#cddc86}.st10,.st11{display:inline;fill:#00bd45;stroke:#009245;stroke-miterlimit:10}.st11{fill:#ffffb0;stroke:#f4c000}.st12{fill:#db8800}.st13{opacity:.4;fill:#ffff92}.st14,.st15,.st16{fill:none;stroke:#946800;stroke-miterlimit:10}.st15,.st16{fill:#fff;stroke:#fff;stroke-width:.25}.st16{fill:#e05600}</style><g id="Layer_4" class="st0"><circle cx="11" cy="11" r="9" class="st1"/></g><g id="Layer_1" class="st0"><g class="st2"><circle cx="11" cy="11" r="10.5" class="st3"/><path d="M11,1c5.5,0,10,4.5,10,10s-4.5,10-10,10S1,16.5,1,11S5.5,1,11,1 M11,0C4.9,0,0,4.9,0,11s4.9,11,11,11 s11-4.9,11-11S17.1,0,11,0L11,0z" class="st4"/></g></g><g id="Layer_1_copy" class="st0"><g class="st5"><circle cx="11" cy="11" r="9.5" class="st3"/><path d="M11,2c5,0,9,4,9,9s-4,9-9,9s-9-4-9-9S6,2,11,2 M11,1C5.5,1,1,5.5,1,11s4.5,10,10,10s10-4.5,10-10S16.5,1,11,1 L11,1z" class="st4"/></g></g><g id="Layer_3" class="st0"><g class="st2"><path d="M9.6,8.2c0.6,0.7,0.9,1.7,0.9,2.9c0,0.8-0.1,1.5-0.4,2.1c-0.3,0.6-0.7,1.1-1.2,1.4c-0.5,0.3-1.1,0.5-1.8,0.5 S5.8,15,5.3,14.6c-0.5-0.3-0.9-0.8-1.2-1.4c-0.3-0.6-0.4-1.3-0.4-2.2c0-0.8,0.1-1.5,0.4-2.1c0.3-0.6,0.7-1.1,1.2-1.4 c0.5-0.3,1.1-0.5,1.8-0.5C8.2,7.1,9,7.5,9.6,8.2z M5.9,9.1c-0.3,0.4-0.4,1.1-0.4,2c0,0.9,0.1,1.6,0.4,2c0.3,0.4,0.6,0.6,1.2,0.6 c0.5,0,0.9-0.2,1.2-0.6c0.3-0.4,0.4-1.1,0.4-2.1s-0.1-1.6-0.4-2S7.6,8.4,7.1,8.4C6.6,8.4,6.2,8.6,5.9,9.1z" class="st4"/><path d="M13.4,14.9h-1.8V7.3h1.8V14.9z M15.4,10.7l2.6,4.2h-2.1l-2.4-4.1l2.4-3.6h1.9L15.4,10.7z" class="st4"/></g></g><g id="Layer_1_copy_3" class="st0"><g class="st2"><circle cx="11" cy="11" r="10.5" class="st3"/><path d="M11,1c5.5,0,10,4.5,10,10s-4.5,10-10,10S1,16.5,1,11S5.5,1,11,1 M11,0C4.9,0,0,4.9,0,11s4.9,11,11,11 s11-4.9,11-11S17.1,0,11,0L11,0z" class="st6"/></g></g><g id="Layer_1_copy_2" class="st0"><g class="st5"><circle cx="11" cy="11" r="9.5" class="st3"/><path d="M11,2c5,0,9,4,9,9s-4,9-9,9s-9-4-9-9S6,2,11,2 M11,1C5.5,1,1,5.5,1,11s4.5,10,10,10s10-4.5,10-10S16.5,1,11,1 L11,1z" class="st6"/></g></g><g id="Layer_5" class="st0"><g class="st2"><path d="M12,15.1c0.3,0.3,0.5,0.7,0.5,1.1c0,0.5-0.2,0.8-0.5,1.2c-0.3,0.3-0.7,0.5-1.2,0.5c-0.4,0-0.8-0.2-1.1-0.5 s-0.5-0.7-0.5-1.2c0-0.4,0.2-0.8,0.5-1.1c0.3-0.3,0.7-0.5,1.1-0.5C11.3,14.6,11.7,14.8,12,15.1z M12,13H9.7L9.3,5h3L12,13z" class="st6"/></g></g><g id="Layer_8" class="st0"><g class="st2"><path d="M7.5,4c3,0,5.5,2.5,5.5,5.5v5c0,3-2.5,5.5-5.5,5.5c-3,0-5.5-2.5-5.5-5.5v-5C2,6.5,4.5,4,7.5,4 M7.5,3L7.5,3 C3.9,3,1,5.9,1,9.5v5C1,18.1,3.9,21,7.5,21h0c3.6,0,6.5-2.9,6.5-6.5v-5C14,5.9,11.1,3,7.5,3L7.5,3z" class="st7"/></g><g class="st8"><path d="M7.5,21L7.5,21C3.9,21,1,18.1,1,14.5v-5C1,5.9,3.9,3,7.5,3h0C11.1,3,14,5.9,14,9.5v5C14,18.1,11.1,21,7.5,21z" class="st9"/></g></g><g id="Layer_9" class="st0"><polygon points="7.5 12.5 4.5 12.5 9.5 17.5 19.5 8.5 16.5 8.5 9.5 14.5" class="st10"/></g><g id="Layer_10" class="st0"><polygon points="1.5 18.5 19.5 18.5 19.5 5.5 7.5 5.5 6.5 3.5 1.5 3.5" class="st11"/></g><g id="Layer_11" class="st0"><g class="st2"><path d="M14.1,10.9h3.3v2.6h-3.3v3.4h-2.8v-3.4H8v-2.6h3.3V7.5h2.8V10.9z" class="st12"/></g></g><g id="Layer_12_copy"><polygon points="18.3 17.8 12.4 16 7.6 19.9 7.5 13.7 2.3 10.4 8.1 8.3 9.7 2.4 13.5 7.3 19.6 7 16.1 12.1" class="st13"/></g><g id="Layer_12"><polygon points="18.3 17.8 12.4 16 7.6 19.9 7.5 13.7 2.3 10.4 8.1 8.3 9.7 2.4 13.5 7.3 19.6 7 16.1 12.1" class="st14"/></g><g id="Layer_16"><ellipse cx="6.5" cy="13" class="st15" rx="4.5" ry="5"/></g><g id="Layer_15"><g><path d="M7.7,9.6c0.4,0.1,0.7,0.2,1,0.4v3c0,0.5,0,0.8,0.1,1c0.1,0.2,0.2,0.3,0.4,0.3c0.3,0,0.6-0.2,0.7-0.6 c0.2-0.4,0.3-1,0.3-2c0-1.1-0.3-1.9-0.9-2.5C8.8,8.6,7.8,8.3,6.6,8.3c-0.8,0-1.6,0.2-2.2,0.5c-0.6,0.4-1.1,0.9-1.4,1.5 c-0.3,0.6-0.5,1.4-0.5,2.2c0,1.3,0.3,2.3,1,3.1c0.7,0.7,1.7,1.1,3,1.1c0.4,0,0.8,0,1.2-0.1c0.4-0.1,0.8-0.2,1.1-0.3l0.4,1.3 c-0.4,0.2-0.8,0.3-1.3,0.4c-0.5,0.1-1,0.1-1.5,0.1c-1.2,0-2.2-0.2-3-0.7c-0.9-0.5-1.5-1.1-2-1.9c-0.5-0.8-0.7-1.8-0.7-2.9 c0-1.1,0.2-2,0.7-2.9s1.2-1.5,2-2c0.9-0.5,1.9-0.7,3-0.7c1.1,0,2,0.2,2.9,0.7c0.8,0.4,1.4,1,1.8,1.7c0.4,0.7,0.6,1.5,0.6,2.3 c0,0.7-0.1,1.4-0.3,1.9c-0.2,0.6-0.5,1-0.9,1.3c-0.4,0.3-0.9,0.5-1.4,0.5c-0.4,0-0.8-0.1-1.1-0.4s-0.5-0.5-0.5-0.9 c-0.2,0.4-0.4,0.6-0.7,0.9S6.5,15.4,6,15.4c-0.7,0-1.3-0.2-1.6-0.7s-0.6-1.1-0.6-2c0-1,0.2-1.8,0.7-2.4c0.5-0.6,1.2-0.9,2.1-0.9 C7,9.4,7.3,9.5,7.7,9.6z M7.1,13.6v-2.9c-0.2-0.1-0.4-0.1-0.5-0.1c-0.3,0-0.6,0.2-0.8,0.5s-0.3,0.8-0.3,1.6c0,0.5,0.1,0.9,0.2,1.2 s0.3,0.3,0.6,0.3C6.6,14.2,6.9,14,7.1,13.6z" class="st16"/></g></g></svg>